# xmcd
#
# Track frame offsets:
#	150
#	14184
#	22941
#	34834
#	48121
#	59984
#	72389
#	85535
#	96603
#	123232
#	136030
#	148517
#	161225
#	171420
#	182536
#	195506
#	218322
#	232267
#	246020
#	259801
#
# Disc length: 3642
#
# Revision: 3
# Processed by: cddbd v1.5.1PL0 Copyright (c) Steve Scherf et al.
# Submitted via: audiograbber 1.81.03
# Normalized: r1:DSETVAR1,TDELIM( - ),TSWAP
#
DISCID=200e3814
DTITLE=Various Artist - The Blues Masters
DYEAR=1900
DGENRE=
TTITLE0=Louis Armstrong - St Louis Blues
TTITLE1=Billie Holiday - Please dont talk about me when i am gone
TTITLE2=Ike and tina Turner - Poor Fool
TTITLE3=Muddy Waters - Mannish Boy
TTITLE4=Etta James - I'd Rather Go Blind
TTITLE5=Fats Domino - Blue Monday
TTITLE6=Brownie Mc Ghee - The Blue Have a Baby
TTITLE7=Jimmy Reed - Take Out Some Insurance
TTITLE8=Albert King - Angel Of Mercy
TTITLE9=Carl Perkins - Honey dont
TTITLE10=Elmore James - The Sky Is Crying
TTITLE11=Rock Hill and Johnny Winter - Bad Girls Blues
TTITLE12=Irma Thomas - Wish Someone Would Care
TTITLE13=Howling Wolf - Little red Rooster
TTITLE14=Robert Cray - Too Many Cooks
TTITLE15=Jerry Lee Lewis - Whole Lotta Shaking Going On
TTITLE16=Chuck Berry - In The Wee Wee Hours
TTITLE17=Charlie Parker - Parkers Mood
TTITLE18=Koko Taylor - Wang Dang Doodle
TTITLE19=Big Joe Williams - Ride In My New Car
EXTD=
EXTT0=
EXTT1=
EXTT2=
EXTT3=
EXTT4=
EXTT5=
EXTT6=
EXTT7=
EXTT8=
EXTT9=
EXTT10=
EXTT11=
EXTT12=
EXTT13=
EXTT14=
EXTT15=
EXTT16=
EXTT17=
EXTT18=
EXTT19=
PLAYORDER=
